<?xml version="1.0" standalone="no"?>
<!DOCTYPE svg PUBLIC "-//W3C//DTD SVG 20010904//EN"
 "http://www.w3.org/TR/2001/REC-SVG-20010904/DTD/svg10.dtd">
<svg version="1.0" xmlns="http://www.w3.org/2000/svg"
 width="96.000000pt" height="96.000000pt" viewBox="0 0 96.000000 96.000000"
 preserveAspectRatio="xMidYMid meet">
<metadata>
Created by potrace 1.15, written by Peter Selinger 2001-2017
</metadata>
<g transform="translate(0.000000,96.000000) scale(0.100000,-0.100000)"
fill="#000000" stroke="none">
<path d="M351 854 c-98 -35 -179 -108 -227 -202 -27 -53 -29 -65 -29 -172 0
-107 2 -119 29 -172 38 -75 104 -141 180 -181 58 -31 66 -32 176 -32 110 0
118 1 175 32 77 40 138 101 178 178 30 57 32 66 32 170 0 102 -2 115 -31 175
-37 79 -104 147 -182 185 -49 25 -71 29 -157 32 -73 2 -112 -1 -144 -13z m256
-45 c80 -31 173 -123 202 -202 28 -78 28 -177 -1 -254 -29 -80 -121 -172 -201
-201 -78 -29 -176 -29 -254 0 -81 30 -171 121 -202 203 -33 87 -27 208 14 283
38 69 121 145 188 171 72 28 178 28 254 0z"/>
<path d="M369 797 c-95 -36 -165 -105 -200 -196 -31 -83 -24 -206 16 -279 33
-60 84 -110 147 -144 37 -20 58 -23 148 -23 97 0 109 2 158 29 61 34 111 86
143 148 34 64 38 194 10 269 -27 72 -84 136 -152 174 -46 25 -67 30 -144 32
-58 2 -103 -2 -126 -10z m236 -52 c51 -25 115 -89 140 -140 15 -30 20 -60 20
-125 0 -99 -17 -142 -80 -205 -63 -63 -106 -80 -205 -80 -65 0 -95 5 -125 20
-52 25 -115 89 -140 140 -27 57 -32 160 -10 226 23 67 101 149 165 172 61 22
181 18 235 -8z"/>
</g>
</svg>
