<?xml version="1.0" standalone="no"?>
<!DOCTYPE svg PUBLIC "-//W3C//DTD SVG 20010904//EN"
 "http://www.w3.org/TR/2001/REC-SVG-20010904/DTD/svg10.dtd">
<svg version="1.0" xmlns="http://www.w3.org/2000/svg"
 width="1500.000000pt" height="1500.000000pt" viewBox="0 0 1500.000000 1500.000000"
 preserveAspectRatio="xMidYMid meet">
<metadata>
Created by potrace 1.11, written by Peter Selinger 2001-2013
</metadata>
<g transform="translate(0.000000,1500.000000) scale(0.100000,-0.100000)"
fill="#000000" stroke="none">
<path d="M1602 12950 c-214 -23 -349 -73 -389 -145 -130 -235 60 -1049 452
-1935 213 -481 488 -970 781 -1386 480 -684 860 -1154 1330 -1646 594 -622
1427 -1333 2301 -1964 103 -75 189 -139 191 -143 3 -10 -248 -130 -413 -196
-130 -53 -370 -136 -433 -150 -18 -4 -36 -13 -39 -20 -17 -45 76 -328 172
-520 640 -1294 2408 -2130 4925 -2329 107 -9 219 -18 248 -21 28 -3 52 -2 52
3 0 4 -46 27 -102 51 -299 128 -720 358 -1003 546 -566 377 -904 769 -979
1135 -8 41 -13 76 -11 78 2 2 54 -19 116 -47 61 -28 117 -51 124 -51 6 0 38
33 71 73 l60 74 174 -144 c224 -184 247 -198 325 -198 94 1 127 24 250 175 58
71 108 130 111 130 2 0 23 -14 46 -30 92 -67 248 -88 369 -51 94 30 155 78
259 206 51 63 97 115 101 115 4 0 467 -254 1029 -565 563 -311 1025 -564 1027
-561 2 2 -336 402 -752 888 -416 485 -759 888 -762 895 -2 6 37 63 88 125 104
127 134 185 148 278 19 136 -20 260 -110 355 -37 39 -49 58 -42 67 5 7 52 65
103 128 106 130 120 158 120 232 0 95 -21 122 -228 290 -103 83 -192 156 -199
162 -9 8 2 28 47 83 33 40 60 77 60 82 0 5 -32 53 -71 106 l-70 98 78 -7 c221
-18 496 -137 765 -329 365 -262 803 -721 1170 -1229 55 -77 102 -137 104 -135
2 2 -28 114 -67 248 -393 1360 -914 2434 -1557 3209 -119 143 -373 403 -511
522 -514 445 -1107 713 -1632 735 l-135 6 -18 -164 c-28 -258 -111 -689 -136
-704 -5 -3 -69 50 -142 117 -565 520 -1294 1110 -1869 1510 -740 516 -1491
925 -2435 1327 -727 309 -1576 526 -2374 606 -184 19 -601 27 -718 15z"/>
</g>
</svg>
